<svg xmlns="http://www.w3.org/2000/svg" viewBox="0 0 512 512" width="512" height="512">
  <defs>
    <linearGradient id="grad" x1="0%" y1="0%" x2="100%" y2="100%">
      <stop offset="0%" style="stop-color:#5E5CE6;stop-opacity:1" />
      <stop offset="100%" style="stop-color:#BF5AF2;stop-opacity:1" />
    </linearGradient>
    <linearGradient id="pageGrad" x1="0%" y1="0%" x2="0%" y2="100%">
      <stop offset="0%" style="stop-color:#FFFFFF;stop-opacity:1" />
      <stop offset="100%" style="stop-color:#F2F2F7;stop-opacity:1" />
    </linearGradient>
  </defs>
  
  <rect width="512" height="512" rx="96" fill="url(#grad)"/>
  
  <g transform="translate(256,256)">
    <rect x="-120" y="-140" width="160" height="200" rx="8" fill="url(#pageGrad)" opacity="0.95"/>
    <rect x="-100" y="-120" width="120" height="8" rx="4" fill="#5E5CE6" opacity="0.6"/>
    <rect x="-100" y="-100" width="100" height="6" rx="3" fill="#5E5CE6" opacity="0.4"/>
    <rect x="-100" y="-84" width="110" height="6" rx="3" fill="#5E5CE6" opacity="0.4"/>
    <rect x="-100" y="-68" width="80" height="6" rx="3" fill="#5E5CE6" opacity="0.4"/>
    <rect x="-100" y="-44" width="120" height="8" rx="4" fill="#5E5CE6" opacity="0.6"/>
    <rect x="-100" y="-24" width="90" height="6" rx="3" fill="#5E5CE6" opacity="0.4"/>
    <rect x="-100" y="-8" width="105" height="6" rx="3" fill="#5E5CE6" opacity="0.4"/>
    
    <rect x="0" y="-100" width="140" height="200" rx="8" fill="url(#pageGrad)" opacity="0.95"/>
    <rect x="20" y="-80" width="100" height="8" rx="4" fill="#BF5AF2" opacity="0.6"/>
    <rect x="20" y="-60" width="80" height="6" rx="3" fill="#BF5AF2" opacity="0.4"/>
    <rect x="20" y="-44" width="95" height="6" rx="3" fill="#BF5AF2" opacity="0.4"/>
    <rect x="20" y="-20" width="110" height="8" rx="4" fill="#BF5AF2" opacity="0.6"/>
    <rect x="20" y="0" width="70" height="6" rx="3" fill="#BF5AF2" opacity="0.4"/>
    <rect x="20" y="16" width="85" height="6" rx="3" fill="#BF5AF2" opacity="0.4"/>
    
    <circle cx="70" cy="40" r="24" fill="url(#grad)" opacity="0.9"/>
    <path d="M60 40 L70 48 L82 32" stroke="white" stroke-width="4" fill="none" stroke-linecap="round" stroke-linejoin="round"/>
  </g>
</svg>